HIERARCHY
ROOT Hips
{
  OFFSET -35.2597 29.1586 114.425
  CHANNELS 6 Xposition Yposition Zposition Zrotation Xrotation Yrotation
  JOINT LeftUpLeg
  {
    OFFSET 8.64259 1.95398 -2.38835
    CHANNELS 3 Zrotation Xrotation Yrotation
    JOINT LeftLeg
    {
      OFFSET 43.7702 0 0
      CHANNELS 3 Zrotation Xrotation Yrotation
      JOINT LeftFoot
      {
        OFFSET 40.6238 0 0
        CHANNELS 3 Zrotation Xrotation Yrotation
        JOINT LeftToeBase
        {
          OFFSET 12.7242 0 0
          CHANNELS 3 Zrotation Xrotation Yrotation
          End Site
          {
            OFFSET 0 0 0
          }
        }
      }
    }
  }
  JOINT RightUpLeg
  {
    OFFSET -8.2249 1.95398 -2.59336
    CHANNELS 3 Zrotation Xrotation Yrotation
    JOINT RightLeg
    {
      OFFSET 43.5653 0 0
      CHANNELS 3 Zrotation Xrotation Yrotation
      JOINT RightFoot
      {
        OFFSET 40.6238 0 0
        CHANNELS 3 Zrotation Xrotation Yrotation
        JOINT RightToeBase
        {
          OFFSET 12.7242 0 0
          CHANNELS 3 Zrotation Xrotation Yrotation
          End Site
          {
            OFFSET 0 0 0
          }
        }
      }
    }
  }
  JOINT Spine
  {
    OFFSET 0.165834 0.87714 6.61349
    CHANNELS 3 Zrotation Xrotation Yrotation
    JOINT Spine1
    {
      OFFSET 7.38963 1.71661e-005 0
      CHANNELS 3 Zrotation Xrotation Yrotation
      JOINT Spine2
      {
        OFFSET 11.9445 1.14441e-005 0
        CHANNELS 3 Zrotation Xrotation Yrotation
        JOINT Spine3
        {
          OFFSET 14.7254 4.19617e-005 0
          CHANNELS 3 Zrotation Xrotation Yrotation
          JOINT Spine4
          {
            OFFSET 10.9679 0 0
            CHANNELS 3 Zrotation Xrotation Yrotation
            JOINT RightShoulder
            {
              OFFSET 2.46616 -1.6653 3.69651
              CHANNELS 3 Zrotation Xrotation Yrotation
              JOINT RightArm
              {
                OFFSET 13.0012 0 0
                CHANNELS 3 Zrotation Xrotation Yrotation
                JOINT RightForeArm
                {
                  OFFSET 28.7848 1.62311e-005 0
                  CHANNELS 3 Zrotation Xrotation Yrotation
                  JOINT RightHand
                  {
                    OFFSET 26.5688 1.62095e-005 0
                    CHANNELS 3 Zrotation Xrotation Yrotation
                    End Site
                    {
                      OFFSET 0 0 0
                    }
                  }
                }
              }
            }
            JOINT LeftShoulder
            {
              OFFSET 2.38034 -1.29275 -3.7523
              CHANNELS 3 Zrotation Xrotation Yrotation
              JOINT LeftArm
              {
                OFFSET 16.3182 6.07031e-005 0
                CHANNELS 3 Zrotation Xrotation Yrotation
                JOINT LeftForeArm
                {
                  OFFSET 27.0901 0 0
                  CHANNELS 3 Zrotation Xrotation Yrotation
                  JOINT LeftHand
                  {
                    OFFSET 24.5451 1.51738e-005 0
                    CHANNELS 3 Zrotation Xrotation Yrotation
                    End Site
                    {
                      OFFSET 0 0 0
                    }
                  }
                }
              }
            }
            JOINT Neck
            {
              OFFSET 5.0226 -0.0266342 0
              CHANNELS 3 Zrotation Xrotation Yrotation
              JOINT Head
              {
                OFFSET 6.69364 2.86102e-005 0
                CHANNELS 3 Zrotation Xrotation Yrotation
                End Site
                {
                  OFFSET 0 0 0
                }
              }
            }
          }
        }
      }
    }
  }
}
MOTION
Frames:	17
Frame Time:	0.0416667
0.683801 109.73 -2.73083 87.4077 49.128 91.5216 -172.737 0.456186 89.9242 -65.9732 24.2288 3.76851 45.8759 -9.94242 -3.36506 11.7964 -10.5226 2.04803 168.034 4.88027 91.7685 -90.8967 -14.0416 -1.99236 56.3039 2.77902 0.211417 18.8245 1.67711 6.67067 0.195969 7.20835 -90.5221 12.4566 0.140945 -1.05839 0.785221 0.0942229 -1.06357 -21.747 0.452507 -0.967106 -1.73431 0.452487 -0.967124 104.401 4.28641 -72.2073 -5.31541 38.3141 -48.2196 -3.59276 -7.71743 -4.89011 -24.9201 2.12853 -15.0808 -79.4666 -11.1211 92.3886 10.6083 -48.9288 -67.0002 2.41387 7.09659 -3.45893 13.985 -0.488773 -7.16915 -26.8512 -0.587639 -6.1983 -2.40565 -1.22221 3.27602 
7.20015 112.207 -8.47367 85.8347 48.6602 92.2043 -169.4 20.6555 93.6536 -87.3918 12.8063 2.09579 57.0318 -2.6351 0.839291 9.83756 -12.5216 3.02002 169.109 30.4963 87.9353 -110.362 -15.1305 -3.35765 61.3299 -1.60689 -2.70952 20.9433 1.87637 4.01881 -0.0385271 8.4187 -90.6458 10.033 -0.37048 -1.25556 -1.63851 -0.425366 -1.23805 -24.1688 0.0239579 -1.30885 -4.15616 0.0239694 -1.30885 103.15 -5.08621 -79.0945 -11.775 32.7432 -17.778 -3.73348 -11.0959 -4.89249 -24.9118 2.13331 -15.0951 -79.2602 -13.051 93.0551 24.3788 -45.0199 -35.5742 2.72201 19.2455 -3.77289 9.3568 -0.483336 -8.45297 -28.6142 0.0486442 -5.56166 0.87974 -0.487812 4.8389 
12.7703 111.934 -11.9202 82.8137 49.6584 93.3989 -163.63 42.8759 82.1046 -92.9688 12.0444 1.4542 66.5473 4.77941 3.2072 7.62226 -12.6713 1.40346 169.651 50.8675 91.8972 -100.335 -12.6377 -2.93493 68.686 -7.057 -5.69489 22.209 1.39327 3.96954 -0.197984 9.81709 -90.5888 7.23503 -0.649094 -1.13116 -4.43623 -0.698259 -1.1015 -26.9678 -0.279172 -1.27392 -6.95513 -0.279171 -1.27393 99.2176 -11.2681 -90.8065 -2.48974 23.2995 5.27651 -3.95409 -16.2978 -4.91908 -22.6649 2.3337 -17.1682 -80.8185 -15.9185 89.436 25.9317 -36.5208 -14.5335 3.28443 35.4047 -4.39137 3.34006 -0.252007 -7.60595 -23.7741 -0.216435 -6.59081 3.57619 -0.456121 5.292 
20.1589 107.219 -17.0664 79.1085 50.5548 96.7177 -159.875 56.541 74.7903 -78.0005 13.5289 -1.8214 74.2319 9.69206 1.02683 11.9177 -14.0211 6.82651 171.254 56.8818 91.6497 -68.1662 -10.2016 0.150258 71.5023 -8.00466 -3.70041 20.4444 2.79674 2.13541 -0.030149 11.0327 -90.8367 4.80246 -0.403283 -1.63518 -6.86942 -0.474835 -1.61586 -29.3963 0.106729 -1.68077 -9.38362 0.10673 -1.68078 96.2768 -19.3022 -96.648 10.3354 19.2593 9.62219 -4.41621 -26.4567 -5.03535 -21.5247 2.25696 -17.389 -83.5695 -24.0555 84.5062 18.4889 -29.8949 -5.67908 3.36239 36.135 -4.4306 6.66032 -0.314531 -7.2059 -12.4631 -1.44064 -7.25023 3.15746 -1.04376 6.28733 
31.2596 98.6221 -26.092 75.269 47.6535 100.368 -163.37 62.4027 78.7299 -53.8183 13.732 -6.31441 75.0165 9.08614 -2.26142 19.1127 -12.5149 11.5196 175.239 52.8749 91.1272 -36.6014 -14.2599 2.23977 66.4146 -4.53403 -1.17663 23.016 2.07629 1.17154 0.196148 11.6685 -90.9226 3.53281 0.0234606 -1.80494 -8.13939 -0.0559985 -1.80423 -30.6652 0.56474 -1.71451 -10.6525 0.564747 -1.7145 92.3747 -24.5843 -103.996 23.1276 16.0299 8.71113 -4.2453 -22.8203 -4.9766 -22.1249 2.77529 -19.8562 -84.6086 -32.376 84.2033 4.32566 -23.7916 -2.00445 3.03869 28.8322 -4.09665 7.2492 -0.24344 -6.13156 -4.04686 -1.06897 -2.82262 1.52998 -0.664916 3.19004 
42.5468 84.5982 -35.5399 82.0608 45.168 95.5168 -172.179 60.7232 87.6652 -43.783 15.5081 -4.61804 73.0114 8.00059 -3.43014 20.4286 -8.97126 7.78854 179.246 58.1924 93.0749 -57.69 -11.978 -0.963415 65.704 -3.46106 -1.82407 21.0637 1.20337 5.65167 0.303048 11.6263 -90.552 3.6234 0.38472 -1.08067 -8.04793 0.336801 -1.09655 -30.581 0.691728 -0.915107 -10.5683 0.691722 -0.915109 86.8639 -35.4512 -110.525 25.3963 15.2838 6.27954 -4.35714 -25.1725 -5.01414 -17.8903 1.6803 -16.0428 -85.9899 -44.5473 83.8384 -4.37354 -20.94 -3.15282 2.9318 25.7541 -3.9935 7.93493 0.663514 4.10773 -6.17305 0.236818 -1.2493 0.897224 0.398247 2.75174 
49.2836 74.5486 -42.5727 90.8455 40.8812 92.4453 -177.558 69.2491 92.9857 -67.4566 19.1765 0.288507 60.1544 -0.583366 1.87816 9.08839 -21.3682 13.2765 168.463 64.8164 105.833 -87.8978 -17.6622 -1.83881 64.8575 -4.40749 -5.38273 30.3723 -2.50497 6.72156 0.522437 12.0274 -90.4348 2.8212 0.872622 -0.839239 -8.84975 0.834859 -0.876838 -31.3862 1.0845 -0.538174 -11.3736 1.0845 -0.538171 82.7546 -36.532 -117.354 25.3822 14.259 -12.643 -4.48568 -27.8246 -5.05971 -21.1554 0.863297 -10.0044 -88.8201 -51.2974 80.7439 -12.4141 -19.1865 -21.0795 3.14967 31.4801 -4.21806 1.52765 0.0121009 -1.35594 -1.28842 1.67241 -0.321915 3.31942 1.81317 3.25389 
56.0696 69.1507 -47.9548 96.5114 44.2031 84.2509 -164.58 70.0562 78.0733 -86.3591 20.0216 1.28626 69.7741 7.16418 4.7167 13.8185 -15.0347 9.92486 168.164 64.3102 101.91 -105.472 -15.9899 -3.4889 69.4687 -8.58713 -7.72981 39.7628 -5.6775 6.50164 0.373681 12.5739 -90.0221 1.72541 0.737836 -0.0267978 -9.94535 0.735946 -0.0592565 -32.4819 0.711775 0.1962 -12.4693 0.711767 0.196202 86.3369 -29.8548 -114.02 23.2923 14.0135 -44.6768 -4.62223 -30.5541 -5.10906 -24.2897 1.83274 -13.9768 -90.8149 -46.7425 76.7232 -21.4947 -14.1877 -60.8058 3.08746 30.1376 -4.14084 8.24038 -0.47696 -8.52316 2.79095 0.733484 -0.189531 4.42701 0.765913 0.351409 
61.9128 69.1058 -51.9699 94.1578 46.5016 84.3242 -155.425 69.4358 70.9697 -93.075 22.2064 1.20935 73.7224 10.3166 5.13266 13.8368 -15.012 9.87992 171.759 62.3012 99.5634 -108.967 -11.6973 -3.78514 69.5048 -8.69722 -6.42861 50.0786 -9.07279 5.82361 0.474212 12.2426 -89.9168 2.38715 0.979313 0.181075 -9.28344 0.986348 0.137786 -31.8209 0.879608 0.467048 -11.8083 0.879624 0.467046 91.6695 -18.5408 -108.16 17.0327 20.2471 -69.176 -4.18969 -21.607 -4.96398 -26.3491 2.32915 -15.4374 -89.5104 -35.5807 75.953 -22.4467 -0.026544 -90.5117 2.90306 24.9694 -3.96267 14.4547 -1.4588 -13.6023 3.79813 -1.34229 1.07573 8.58516 -1.49813 0.0161647 
68.4846 73.4762 -56.2829 90.889 50.4608 84.5266 -157.629 63.7221 73.0062 -90.9027 25.7053 0.488198 74.8934 11.7807 6.40928 14.408 -14.0143 9.08149 174.048 54.4917 96.5119 -104.006 -7.72691 -3.59184 70.5462 -9.29378 -6.56635 55.2548 -10.7562 4.29754 0.442467 11.6696 -89.7315 3.5323 0.991416 0.525663 -8.13836 1.0136 0.481499 -30.6748 0.787589 0.799318 -10.6621 0.787605 0.799315 97.037 -8.7175 -97.8823 12.6822 27.6106 -79.7411 -3.65822 -9.28618 -4.88859 -29.9749 3.02279 -16.6693 -86.1349 -23.8339 79.0698 -19.621 -14.1838 -109.192 2.61355 15.4806 -3.65694 16.0186 -2.2848 -17.9502 0.882517 -2.90669 -1.82743 11.2017 -2.63137 -0.505272 
75.3419 80.1776 -61.6321 88.3942 52.6605 84.7454 -162.792 54.0822 78.833 -82.8781 28.2462 -1.06991 75.0239 11.8261 5.54834 18.0246 -14.0939 12.7983 175.631 47.404 93.3445 -95.6407 -7.64923 -3.30982 61.8555 -2.13331 -4.01606 54.6928 -10.7076 10.0753 0.345609 10.9664 -89.6652 4.93815 0.828342 0.643738 -6.73268 0.855859 0.606642 -29.2678 0.596573 0.862916 -9.25515 0.596585 0.862921 99.0315 -1.33385 -94.2273 9.55916 31.9673 -78.4798 -3.67036 -9.58629 -4.89186 -29.7665 3.18729 -17.4104 -83.7488 -17.4736 82.6503 -17.1853 -21.3737 -116.926 2.56426 13.4766 -3.61348 15.6844 -4.0367 -28.8379 -4.92192 -3.05012 -2.21401 12.533 -2.7582 0.19401 
82.1962 87.0007 -67.1573 86.409 52.1701 87.0572 -168.214 42.684 85.8187 -71.0353 26.8827 -1.80901 74.6505 10.9516 3.17587 27.5412 -7.89995 13.71 178.142 44.2428 92.4256 -88.42 -15.2551 -3.54617 48.4956 7.42649 1.29293 31.5532 -3.58682 9.35573 0.432808 10.3484 -89.6488 6.17357 1.013 0.658093 -5.49712 1.04097 0.612872 -28.033 0.768375 0.932114 -8.02032 0.768386 0.93212 99.1653 -2.1698 -93.6219 8.13517 33.3781 -76.4663 -3.92057 -15.5078 -4.91089 -26.2094 3.43061 -20.201 -84.9873 -22.2463 81.1175 -16.967 -23.299 -120.491 2.75585 20.3492 -3.81227 19.2203 -6.64387 -37.9354 -7.52829 -2.7275 -3.70327 12.1686 -2.35461 0.509905 
88.5065 92.5216 -72.7571 85.8289 51.0167 88.0222 -171.335 31.1156 88.9366 -59.2889 25.8263 -1.78672 73.4848 10.3117 3.80924 29.0429 -6.73661 13.4706 -179.669 41.982 90.1119 -78.1536 -25.5023 -4.39861 52.0264 5.57414 3.09116 31.0643 -1.60048 2.33994 0.311723 9.93183 -89.5658 7.00645 0.808936 0.820983 -4.66448 0.844271 0.784577 -27.1986 0.524812 1.02613 -7.1859 0.524807 1.02613 96.9003 -10.1162 -97.8613 6.08784 35.0534 -73.116 -4.39746 -26.055 -5.02721 -26.0254 4.37259 -24.4354 -85.5389 -24.6613 80.5706 -17.1388 -22.6077 -120.859 2.86249 23.7381 -3.92158 21.8398 -8.8136 -43.3257 -7.47153 -1.84305 -5.04584 10.2572 -1.27902 1.5906 
94.4572 96.6419 -77.888 86.9751 49.3347 88.2146 -173.474 20.0975 90.8191 -48.8986 23.9431 -0.362696 69.5678 7.69003 4.88694 32.3177 -3.83502 11.954 179.152 39.7601 88.9926 -58.7053 -20.1453 -3.03289 63.6122 -1.72495 -0.582985 30.3833 -1.49011 2.93705 0.265256 9.71442 -89.6433 7.44249 0.684134 0.670406 -4.22841 0.71298 0.639653 -26.763 0.45103 0.84502 -6.75032 0.451017 0.845004 97.1378 -10.461 -97.101 9.93378 29.8444 -72.2868 -4.36106 -25.3047 -5.01607 -26.7791 4.64982 -25.038 -86.219 -26.9024 79.7794 -17.7214 -19.6994 -120.541 2.96787 26.7575 -4.03088 21.8924 -9.35002 -45.6777 -6.70171 -0.648999 -4.20358 9.24883 -0.130484 1.85388 
100.84 98.6547 -83.1183 87.6223 48.4081 88.9401 -174.586 10.001 92.2343 -39.9382 22.4016 1.44393 67.6491 6.23212 3.75527 33.8663 -5.95246 18.3639 177.544 36.8586 87.9781 -35.133 -12.6499 -0.895173 64.1589 -2.25074 -0.0572564 28.894 -0.823799 2.65268 0.0175258 9.49973 -89.7796 7.87395 0.131225 0.428028 -3.79706 0.149931 0.421817 -26.3317 -0.0034912 0.447675 -6.319 -0.00348219 0.447665 95.5956 -15.2813 -99.6448 11.4845 27.3607 -69.6435 -4.73741 -32.7199 -5.15791 -26.0107 4.68789 -25.8039 -86.1934 -27.543 79.9991 -18.3632 -16.5074 -118.718 2.93376 25.9479 -3.98997 20.6619 -9.0061 -46.2484 -5.75771 0.815084 -3.61764 7.6446 1.243 1.46738 
108.288 98.4308 -88.458 89.7188 49.5086 87.7554 -173.919 0.411704 94.366 -32.7555 23.4288 2.94496 67.1126 6.06227 3.52958 37.0751 -6.6694 24.6658 178.083 32.2865 85.9266 -19.3048 -11.9049 -1.6637 65.0646 -3.69886 -0.32241 27.9046 -0.154455 1.73215 -0.30273 9.28359 -89.8344 8.30711 -0.530977 0.358963 -3.36382 -0.514665 0.381978 -25.8995 -0.614318 0.182778 -5.88686 -0.61432 0.182783 94.7307 -19.0106 -100.442 15.0924 22.4288 -65.1945 -5.14985 -39.7399 -5.36387 -26.8624 4.85124 -25.8038 -86.7956 -27.6019 78.8103 -19.7533 -10.9545 -114.77 3.05598 29.1118 -4.12147 19.0315 -7.99892 -44.5138 -6.14545 1.56245 -4.59036 6.22243 2.13002 2.95795 
116.898 96.6915 -93.861 94.3996 52.2932 84.2771 -170.379 -9.5199 98.9795 -30.0356 29.566 4.28274 64.0883 3.9336 3.99023 44.3045 -0.721836 23.7648 176.494 29.3094 84.6877 -22.2865 -12.4403 -1.50353 63.7297 -2.71376 -0.425177 29.155 -0.384764 0.810264 -0.806755 9.03605 -89.855 8.80452 -1.545 0.390471 -2.86561 -1.52632 0.4581 -25.4081 -1.59092 -0.0920343 -5.39541 -1.59091 -0.0920313 92.2722 -23.3429 -104.609 18.0875 18.413 -55.6241 -5.73243 -47.9032 -5.71666 -26.3265 4.88646 -26.3896 -86.3191 -26.9802 79.6182 -23.021 -1.81802 -107.549 3.19617 32.5634 -4.26458 18.2489 -6.93608 -40.8076 -5.93558 2.09179 -4.73347 3.65971 2.62402 3.07886 
